# xmcd CD database file
#
# Track frame offsets:
#	150
#	24485
#	62058
#	91802
#	112128
#	137840
#	165313
#	186585
#	212654
#	232081
#	260546
#	296268
#
# Disc length: 4608 seconds
#
# Revision: 0
# Processed by: cddbd v1.5.2PL0 Copyright (c) Steve Scherf et al.
# Submitted via: Feurio! 1.68 - http://www.feurio.com
#
DISCID=ae11fe0c
DTITLE=Eda Zari - Toka Incognita
DYEAR=1900
DGENRE=Pop Folk
TTITLE0=Dj(a)ellezore
TTITLE1=La Lune et Lys - Zymbylat
TTITLE2=Cahiret
TTITLE3=Moj Zare
TTITLE4=The Balkan 'Turbo' Irony
TTITLE5=Thrill in 9/8
TTITLE6=Do vij
TTITLE7=Foggy Lake feat. Dominic Miller
TTITLE8=A Yiddishe Mame
TTITLE9=Kroi feat. Dominic Miller
TTITLE10=Spring in Blue
TTITLE11=Toka Incognita
EXTD=
EXTT0=
EXTT1=
EXTT2=
EXTT3=
EXTT4=
EXTT5=
EXTT6=
EXTT7=
EXTT8=
EXTT9=
EXTT10=
EXTT11=
PLAYORDER=
